<svg xmlns="http://www.w3.org/2000/svg" width="1280" height="720" viewBox="0 0 1280 720" role="img" aria-labelledby="title desc">
  <title id="title">Job detail screenshot placeholder</title>
  <desc id="desc">Placeholder image for the Video Automation job detail page.</desc>
  <rect width="1280" height="720" rx="36" fill="#0b0d12"/>
  <rect x="70" y="60" width="1140" height="92" rx="24" fill="#171b24"/>
  <rect x="70" y="190" width="640" height="330" rx="28" fill="#11151c" stroke="#28e3b0" stroke-opacity=".38"/>
  <rect x="98" y="220" width="584" height="258" rx="18" fill="#05070a"/>
  <rect x="100" y="498" width="580" height="10" rx="5" fill="#28e3b0"/>
  <rect x="745" y="190" width="465" height="330" rx="28" fill="#171b24" stroke="#ffffff" stroke-opacity=".08"/>
  <rect x="780" y="234" width="390" height="58" rx="15" fill="#0f322b"/>
  <rect x="780" y="312" width="390" height="58" rx="15" fill="#20242f"/>
  <rect x="780" y="390" width="390" height="58" rx="15" fill="#20242f"/>
  <rect x="70" y="558" width="1140" height="90" rx="24" fill="#171b24"/>
  <rect x="120" y="596" width="180" height="16" rx="8" fill="#28e3b0"/>
  <rect x="340" y="596" width="180" height="16" rx="8" fill="#ef4444"/>
  <rect x="560" y="596" width="180" height="16" rx="8" fill="#3b82f6"/>
  <text x="640" y="126" text-anchor="middle" font-family="Inter, Segoe UI, Arial, sans-serif" font-size="34" fill="#f6fffb" font-weight="700">Job detail placeholder</text>
</svg>
